<svg width="180" height="75" viewBox="0 0 180 75" fill="none" xmlns="http://www.w3.org/2000/svg">
<path d="M0 68.5547H6.42703V74.9817H0V68.5547Z" fill="#D9D9D9"/>
<path d="M0 68.5547H6.42703V74.9817H0V68.5547Z" fill="black" fill-opacity="0.2"/>
<path d="M0 51.418H6.42703V57.845H0V51.418Z" fill="#D9D9D9"/>
<path d="M0 51.418H6.42703V57.845H0V51.418Z" fill="black" fill-opacity="0.2"/>
<path d="M0 34.2773H6.42703V40.7044H0V34.2773Z" fill="#D9D9D9"/>
<path d="M0 34.2773H6.42703V40.7044H0V34.2773Z" fill="black" fill-opacity="0.2"/>
<path d="M0 17.1406H6.42703V23.5677H0V17.1406Z" fill="#D9D9D9"/>
<path d="M0 17.1406H6.42703V23.5677H0V17.1406Z" fill="black" fill-opacity="0.2"/>
<path d="M0 0H6.42703V6.42703H0V0Z" fill="#D9D9D9"/>
<path d="M0 0H6.42703V6.42703H0V0Z" fill="black" fill-opacity="0.2"/>
<path d="M19.2734 68.5547H25.7005V74.9817H19.2734V68.5547Z" fill="#D9D9D9"/>
<path d="M19.2734 68.5547H25.7005V74.9817H19.2734V68.5547Z" fill="black" fill-opacity="0.2"/>
<path d="M19.2734 51.4141H25.7005V57.8411H19.2734V51.4141Z" fill="#D9D9D9"/>
<path d="M19.2734 51.4141H25.7005V57.8411H19.2734V51.4141Z" fill="black" fill-opacity="0.2"/>
<path d="M19.2734 17.1406H25.7005V23.5677H19.2734V17.1406Z" fill="#D9D9D9"/>
<path d="M19.2734 17.1406H25.7005V23.5677H19.2734V17.1406Z" fill="black" fill-opacity="0.2"/>
<path d="M38.5664 68.5547H44.9934V74.9817H38.5664V68.5547Z" fill="#D9D9D9"/>
<path d="M38.5664 68.5547H44.9934V74.9817H38.5664V68.5547Z" fill="black" fill-opacity="0.2"/>
<path d="M38.5664 51.418H44.9934V57.845H38.5664V51.418Z" fill="#D9D9D9"/>
<path d="M38.5664 51.418H44.9934V57.845H38.5664V51.418Z" fill="black" fill-opacity="0.2"/>
<path d="M38.5664 34.2773H44.9934V40.7044H38.5664V34.2773Z" fill="#D9D9D9"/>
<path d="M38.5664 34.2773H44.9934V40.7044H38.5664V34.2773Z" fill="black" fill-opacity="0.2"/>
<path d="M38.5664 17.1406H44.9934V23.5677H38.5664V17.1406Z" fill="#D9D9D9"/>
<path d="M38.5664 17.1406H44.9934V23.5677H38.5664V17.1406Z" fill="black" fill-opacity="0.2"/>
<path d="M38.5664 0H44.9934V6.42703H38.5664V0Z" fill="#D9D9D9"/>
<path d="M38.5664 0H44.9934V6.42703H38.5664V0Z" fill="black" fill-opacity="0.2"/>
<path d="M57.8398 68.5547H64.2669V74.9817H57.8398V68.5547Z" fill="#D9D9D9"/>
<path d="M57.8398 68.5547H64.2669V74.9817H57.8398V68.5547Z" fill="black" fill-opacity="0.2"/>
<path d="M57.8398 51.4141H64.2669V57.8411H57.8398V51.4141Z" fill="#D9D9D9"/>
<path d="M57.8398 51.4141H64.2669V57.8411H57.8398V51.4141Z" fill="black" fill-opacity="0.2"/>
<path d="M57.8398 34.2773H64.2669V40.7044H57.8398V34.2773Z" fill="#D9D9D9"/>
<path d="M57.8398 34.2773H64.2669V40.7044H57.8398V34.2773Z" fill="black" fill-opacity="0.2"/>
<path d="M57.8398 17.1406H64.2669V23.5677H57.8398V17.1406Z" fill="#D9D9D9"/>
<path d="M57.8398 17.1406H64.2669V23.5677H57.8398V17.1406Z" fill="black" fill-opacity="0.2"/>
<path d="M57.8398 0H64.2669V6.42703H57.8398V0Z" fill="#D9D9D9"/>
<path d="M57.8398 0H64.2669V6.42703H57.8398V0Z" fill="black" fill-opacity="0.2"/>
<path d="M77.125 68.5547H83.552V74.9817H77.125V68.5547Z" fill="#D9D9D9"/>
<path d="M77.125 68.5547H83.552V74.9817H77.125V68.5547Z" fill="black" fill-opacity="0.2"/>
<path d="M77.125 51.418H83.552V57.845H77.125V51.418Z" fill="#D9D9D9"/>
<path d="M77.125 51.418H83.552V57.845H77.125V51.418Z" fill="black" fill-opacity="0.2"/>
<path d="M77.125 34.2773H83.552V40.7044H77.125V34.2773Z" fill="#D9D9D9"/>
<path d="M77.125 34.2773H83.552V40.7044H77.125V34.2773Z" fill="black" fill-opacity="0.2"/>
<path d="M77.125 17.1406H83.552V23.5677H77.125V17.1406Z" fill="#D9D9D9"/>
<path d="M77.125 17.1406H83.552V23.5677H77.125V17.1406Z" fill="black" fill-opacity="0.2"/>
<path d="M77.125 0H83.552V6.42703H77.125V0Z" fill="#D9D9D9"/>
<path d="M77.125 0H83.552V6.42703H77.125V0Z" fill="black" fill-opacity="0.2"/>
<path d="M96.4062 68.5547H102.833V74.9817H96.4062V68.5547Z" fill="#D9D9D9"/>
<path d="M96.4062 68.5547H102.833V74.9817H96.4062V68.5547Z" fill="black" fill-opacity="0.2"/>
<path d="M96.4062 51.418H102.833V57.845H96.4062V51.418Z" fill="#D9D9D9"/>
<path d="M96.4062 51.418H102.833V57.845H96.4062V51.418Z" fill="black" fill-opacity="0.2"/>
<path d="M96.4062 34.2773H102.833V40.7044H96.4062V34.2773Z" fill="#D9D9D9"/>
<path d="M96.4062 34.2773H102.833V40.7044H96.4062V34.2773Z" fill="black" fill-opacity="0.2"/>
<path d="M96.4062 17.1406H102.833V23.5677H96.4062V17.1406Z" fill="#D9D9D9"/>
<path d="M96.4062 17.1406H102.833V23.5677H96.4062V17.1406Z" fill="black" fill-opacity="0.2"/>
<path d="M96.4062 0H102.833V6.42703H96.4062V0Z" fill="#D9D9D9"/>
<path d="M96.4062 0H102.833V6.42703H96.4062V0Z" fill="black" fill-opacity="0.2"/>
<path d="M115.691 68.5547H122.118V74.9817H115.691V68.5547Z" fill="#D9D9D9"/>
<path d="M115.691 68.5547H122.118V74.9817H115.691V68.5547Z" fill="black" fill-opacity="0.2"/>
<path d="M115.691 51.4141H122.118V57.8411H115.691V51.4141Z" fill="#D9D9D9"/>
<path d="M115.691 51.4141H122.118V57.8411H115.691V51.4141Z" fill="black" fill-opacity="0.2"/>
<path d="M115.691 34.2773H122.118V40.7044H115.691V34.2773Z" fill="#D9D9D9"/>
<path d="M115.691 34.2773H122.118V40.7044H115.691V34.2773Z" fill="black" fill-opacity="0.2"/>
<path d="M115.691 17.1406H122.118V23.5677H115.691V17.1406Z" fill="#D9D9D9"/>
<path d="M115.691 17.1406H122.118V23.5677H115.691V17.1406Z" fill="black" fill-opacity="0.2"/>
<path d="M115.691 0H122.118V6.42703H115.691V0Z" fill="#D9D9D9"/>
<path d="M115.691 0H122.118V6.42703H115.691V0Z" fill="black" fill-opacity="0.2"/>
<path d="M134.965 68.5547H141.392V74.9817H134.965V68.5547Z" fill="#D9D9D9"/>
<path d="M134.965 68.5547H141.392V74.9817H134.965V68.5547Z" fill="black" fill-opacity="0.2"/>
<path d="M134.965 51.418H141.392V57.845H134.965V51.418Z" fill="#D9D9D9"/>
<path d="M134.965 51.418H141.392V57.845H134.965V51.418Z" fill="black" fill-opacity="0.2"/>
<path d="M134.965 34.2773H141.392V40.7044H134.965V34.2773Z" fill="#D9D9D9"/>
<path d="M134.965 34.2773H141.392V40.7044H134.965V34.2773Z" fill="black" fill-opacity="0.2"/>
<path d="M134.965 17.1406H141.392V23.5677H134.965V17.1406Z" fill="#D9D9D9"/>
<path d="M134.965 17.1406H141.392V23.5677H134.965V17.1406Z" fill="black" fill-opacity="0.2"/>
<path d="M134.965 0H141.392V6.42703H134.965V0Z" fill="#D9D9D9"/>
<path d="M134.965 0H141.392V6.42703H134.965V0Z" fill="black" fill-opacity="0.2"/>
<path d="M154.25 68.5547H160.677V74.9817H154.25V68.5547Z" fill="#D9D9D9"/>
<path d="M154.25 68.5547H160.677V74.9817H154.25V68.5547Z" fill="black" fill-opacity="0.2"/>
<path d="M154.25 51.4141H160.677V57.8411H154.25V51.4141Z" fill="#D9D9D9"/>
<path d="M154.25 51.4141H160.677V57.8411H154.25V51.4141Z" fill="black" fill-opacity="0.2"/>
<path d="M154.25 34.2773H160.677V40.7044H154.25V34.2773Z" fill="#D9D9D9"/>
<path d="M154.25 34.2773H160.677V40.7044H154.25V34.2773Z" fill="black" fill-opacity="0.2"/>
<path d="M154.25 17.1406H160.677V23.5677H154.25V17.1406Z" fill="#D9D9D9"/>
<path d="M154.25 17.1406H160.677V23.5677H154.25V17.1406Z" fill="black" fill-opacity="0.2"/>
<path d="M154.25 0H160.677V6.42703H154.25V0Z" fill="#D9D9D9"/>
<path d="M154.25 0H160.677V6.42703H154.25V0Z" fill="black" fill-opacity="0.2"/>
<path d="M173.531 68.5547H179.958V74.9817H173.531V68.5547Z" fill="#D9D9D9"/>
<path d="M173.531 68.5547H179.958V74.9817H173.531V68.5547Z" fill="black" fill-opacity="0.2"/>
<path d="M173.531 51.418H179.958V57.845H173.531V51.418Z" fill="#D9D9D9"/>
<path d="M173.531 51.418H179.958V57.845H173.531V51.418Z" fill="black" fill-opacity="0.2"/>
<path d="M173.531 34.2773H179.958V40.7044H173.531V34.2773Z" fill="#D9D9D9"/>
<path d="M173.531 34.2773H179.958V40.7044H173.531V34.2773Z" fill="black" fill-opacity="0.2"/>
<path d="M173.531 17.1406H179.958V23.5677H173.531V17.1406Z" fill="#D9D9D9"/>
<path d="M173.531 17.1406H179.958V23.5677H173.531V17.1406Z" fill="black" fill-opacity="0.2"/>
<path d="M173.531 0H179.958V6.42703H173.531V0Z" fill="#D9D9D9"/>
<path d="M173.531 0H179.958V6.42703H173.531V0Z" fill="black" fill-opacity="0.2"/>
</svg>
